<svg class="img-fluid" id="outputsvg" xmlns="http://www.w3.org/2000/svg" style="transform: none; transform-origin: 50% 50%; cursor: move; max-height: 495.82px; transition: none;" width="256" height="256" viewBox="0 0 2560 2560"><g id="l3LTxiOmoAUEQFraAG1m1Bj" fill="rgb(255,255,255)" style="transform: none;"><g style="transform: none;"><path id="p62K4Sny2" d="M385 2550 c-3 -5 -20 -10 -36 -10 -37 0 -119 -20 -119 -29 0 -3 -14 -12 -30 -19 -39 -18 -114 -93 -132 -132 -7 -16 -16 -30 -19 -30 -9 0 -29 -82 -29 -119 0 -16 -4 -33 -10 -36 -14 -9 -14 -1781 0 -1790 6 -3 10 -20 10 -36 0 -37 20 -119 29 -119 3 0 12 -14 19 -30 18 -39 93 -114 132 -132 16 -7 30 -16 30 -19 0 -9 82 -29 119 -29 16 0 33 -4 36 -10 9 -14 1781 -14 1790 0 3 6 20 10 36 10 37 0 119 20 119 29 0 3 14 12 30 19 39 18 114 93 132 132 7 16 16 30 19 30 9 0 29 82 29 119 0 16 5 33 10 36 13 8 14 1746 1 1789 -5 17 -14 58 -20 90 -6 33 -14 62 -18 65 -5 3 -15 19 -23 35 -20 40 -93 111 -130 128 -16 7 -30 16 -30 19 0 9 -82 29 -119 29 -16 0 -33 5 -36 10 -4 7 -313 10 -895 10 -582 0 -891 -3 -895 -10z m1290 -373 c132 -28 227 -77 306 -159 61 -62 103 -126 115 -174 4 -16 12 -35 18 -43 7 -9 11 -63 11 -140 0 -145 -12 -183 -85 -261 -40 -42 -55 -53 -107 -81 -18 -10 -23 -21 -23 -55 0 -24 6 -47 13 -51 7 -4 29 -28 48 -53 78 -100 108 -226 89 -370 -14 -97 -37 -154 -95 -225 -58 -72 -84 -92 -185 -141 -112 -53 -171 -58 -800 -58 l-575 -1 -3 179 c-3 199 -4 195 63 196 22 0 50 8 62 18 21 16 22 26 25 192 3 165 5 177 28 215 13 22 30 46 37 53 20 20 17 119 -3 130 -9 5 -27 34 -40 63 -21 48 -23 70 -24 209 -1 182 -8 200 -78 200 -75 0 -72 -8 -72 189 0 98 3 181 7 185 4 3 273 5 597 3 502 -3 603 -6 671 -20z"></path><path id="p4vL7aBPu" d="M930 1836 l0 -196 38 0 c62 0 69 -15 75 -169 5 -116 9 -138 27 -163 l21 -29 -21 -29 c-18 -26 -22 -49 -27 -163 -6 -151 -13 -167 -75 -167 l-38 0 0 -196 0 -196 198 4 c189 4 199 5 247 30 61 32 86 59 114 120 18 41 21 66 21 205 0 174 6 195 57 228 l32 20 1 147 c0 134 -2 147 -18 152 -11 4 -30 18 -43 32 -23 25 -24 33 -29 207 -5 166 -8 185 -29 222 -27 47 -70 95 -85 95 -6 0 -24 8 -41 17 -24 13 -67 17 -227 21 l-198 4 0 -196z"></path></g></g><g id="l1F08XBUY6FNAZw7UKf1tvF" fill="rgb(226,29,72)" style="transform: none;"><g style="transform: none;"><path id="phNppT00i" d="M377 2224 c-4 -4 -7 -101 -7 -215 0 -230 -4 -219 72 -219 70 0 77 -18 78 -200 1 -139 3 -161 24 -209 13 -29 31 -58 40 -63 19 -11 21 -51 3 -70 -7 -7 -24 -31 -37 -53 -23 -38 -25 -50 -28 -215 -3 -166 -4 -176 -25 -192 -12 -10 -40 -18 -62 -18 -22 0 -46 -4 -53 -8 -9 -7 -12 -57 -10 -218 l3 -209 605 1 c662 0 717 4 830 58 101 49 127 69 185 141 60 74 82 129 96 238 15 117 1 250 -33 325 -23 48 -82 131 -105 145 -20 12 -16 32 10 46 52 28 67 39 107 81 76 81 85 112 85 291 0 99 -4 161 -11 170 -6 8 -14 27 -18 43 -19 79 -133 212 -221 259 -169 90 -172 90 -901 94 -341 2 -623 0 -627 -3z m948 -247 c17 -9 35 -17 41 -17 15 0 58 -48 85 -95 21 -37 24 -56 29 -222 5 -174 6 -182 29 -207 13 -14 32 -28 43 -32 16 -5 18 -17 18 -122 l-1 -117 -32 -20 c-51 -33 -57 -54 -57 -228 0 -139 -3 -164 -21 -205 -28 -62 -53 -88 -114 -120 -47 -24 -61 -26 -217 -30 l-168 -4 0 166 0 166 38 0 c62 0 69 16 75 167 5 128 7 134 37 178 l31 45 -31 44 c-30 42 -31 47 -37 177 -6 154 -13 169 -75 169 l-38 0 0 166 0 166 168 -4 c130 -4 174 -8 197 -21z"></path></g></g></svg>